<svg width="52" height="31" viewBox="0 0 52 31" fill="none" xmlns="http://www.w3.org/2000/svg">
<g clip-path="url(#clip0_43_27)">
<path d="M31.925 28.12C31.925 26.97 32.865 26.03 34.015 26.03C35.165 26.03 36.105 26.97 36.105 28.12C36.105 29.27 35.165 30.21 34.015 30.21C32.865 30.21 31.925 29.27 31.925 28.12Z" fill="#606060" stroke="#FFE772" stroke-miterlimit="10"/>
<path d="M16.605 28.12C16.605 26.97 17.545 26.03 18.695 26.03C19.845 26.03 20.785 26.97 20.785 28.12C20.785 29.27 19.845 30.21 18.695 30.21C17.545 30.21 16.605 29.27 16.605 28.12Z" stroke="#FFE772" stroke-width="0.7797" stroke-miterlimit="10"/>
<path d="M1.28497 28.12C1.28497 26.97 2.22497 26.03 3.37497 26.03C4.52497 26.03 5.46497 26.97 5.46497 28.12C5.46497 29.27 4.52497 30.21 3.37497 30.21C2.22497 30.21 1.28497 29.27 1.28497 28.12Z" stroke="#FFE772" stroke-width="0.7797" stroke-miterlimit="10"/>
<path d="M49.3349 12.8C48.1807 12.8 47.2449 13.7358 47.2449 14.89C47.2449 16.0443 48.1807 16.98 49.3349 16.98C50.4892 16.98 51.4249 16.0443 51.4249 14.89C51.4249 13.7358 50.4892 12.8 49.3349 12.8Z" stroke="#FFE772" stroke-width="0.7797" stroke-miterlimit="10"/>
<path d="M31.925 14.89C31.925 13.74 32.865 12.8 34.015 12.8C35.165 12.8 36.105 13.74 36.105 14.89C36.105 16.04 35.165 16.98 34.015 16.98C32.865 16.98 31.925 16.04 31.925 14.89Z" stroke="#FFE772" stroke-width="0.7797" stroke-miterlimit="10"/>
<path d="M16.6049 14.89C16.6049 13.74 17.5449 12.8 18.6949 12.8C19.8449 12.8 20.7849 13.74 20.7849 14.89C20.7849 16.04 19.8449 16.98 18.6949 16.98C17.5449 16.98 16.6049 16.04 16.6049 14.89Z" stroke="#FFE772" stroke-width="0.7797" stroke-miterlimit="10"/>
<path d="M16.6049 2.59005C16.6049 1.44005 17.5449 0.500055 18.6949 0.500055C19.8449 0.500055 20.7849 1.44005 20.7849 2.59005C20.7849 3.74005 19.8449 4.68005 18.6949 4.68005C17.5449 4.68005 16.6049 3.74005 16.6049 2.59005Z" stroke="#FFE772" stroke-miterlimit="10"/>
</g>
<defs>
<clipPath id="clip0_43_27">
<rect width="50.92" height="30.71" fill="white" transform="translate(51.8149 30.71) rotate(-180)"/>
</clipPath>
</defs>
</svg>
