<svg width="148" height="174" viewBox="0 0 148 174" fill="none" xmlns="http://www.w3.org/2000/svg">
<path d="M139.254 3C140.085 3 140.759 2.32843 140.759 1.5C140.759 0.671573 140.085 0 139.254 0C138.423 0 137.749 0.671573 137.749 1.5C137.749 2.32843 138.423 3 139.254 3Z" fill="#FFE227"/>
<path d="M93.3483 3C94.1796 3 94.8534 2.32843 94.8534 1.5C94.8534 0.671573 94.1796 0 93.3483 0C92.517 0 91.8432 0.671573 91.8432 1.5C91.8432 2.32843 92.517 3 93.3483 3Z" fill="#FFE227"/>
<path d="M47.4106 3C48.2419 3 48.9157 2.32843 48.9157 1.5C48.9157 0.671573 48.2419 0 47.4106 0C46.5793 0 45.9055 0.671573 45.9055 1.5C45.9055 2.32843 46.5793 3 47.4106 3Z" fill="#FFE227"/>
<path d="M1.50513 3C2.3364 3 3.01027 2.32843 3.01027 1.5C3.01027 0.671573 2.3364 0 1.50513 0C0.673871 0 0 0.671573 0 1.5C0 2.32843 0.673871 3 1.50513 3Z" fill="#FFE227"/>
<path d="M139.254 43.9619C140.085 43.9619 140.759 43.2903 140.759 42.4619C140.759 41.6335 140.085 40.9619 139.254 40.9619C138.423 40.9619 137.749 41.6335 137.749 42.4619C137.749 43.2903 138.423 43.9619 139.254 43.9619Z" fill="#FFE227"/>
<path d="M93.3483 43.9619C94.1796 43.9619 94.8534 43.2903 94.8534 42.4619C94.8534 41.6335 94.1796 40.9619 93.3483 40.9619C92.517 40.9619 91.8432 41.6335 91.8432 42.4619C91.8432 43.2903 92.517 43.9619 93.3483 43.9619Z" fill="#FFE227"/>
<path d="M47.4106 43.9619C48.2419 43.9619 48.9157 43.2903 48.9157 42.4619C48.9157 41.6335 48.2419 40.9619 47.4106 40.9619C46.5793 40.9619 45.9055 41.6335 45.9055 42.4619C45.9055 43.2903 46.5793 43.9619 47.4106 43.9619Z" fill="#FFE227"/>
<path d="M1.50513 43.9619C2.3364 43.9619 3.01027 43.2903 3.01027 42.4619C3.01027 41.6335 2.3364 40.9619 1.50513 40.9619C0.673871 40.9619 0 41.6335 0 42.4619C0 43.2903 0.673871 43.9619 1.50513 43.9619Z" fill="#FFE227"/>
<path d="M139.254 84.8918C140.085 84.8918 140.759 84.2203 140.759 83.3918C140.759 82.5634 140.085 81.8918 139.254 81.8918C138.423 81.8918 137.749 82.5634 137.749 83.3918C137.749 84.2203 138.423 84.8918 139.254 84.8918Z" fill="#FFE227"/>
<path d="M93.3483 84.8918C94.1796 84.8918 94.8534 84.2203 94.8534 83.3918C94.8534 82.5634 94.1796 81.8918 93.3483 81.8918C92.517 81.8918 91.8432 82.5634 91.8432 83.3918C91.8432 84.2203 92.517 84.8918 93.3483 84.8918Z" fill="#FFE227"/>
<path d="M47.4106 84.8918C48.2419 84.8918 48.9157 84.2203 48.9157 83.3918C48.9157 82.5634 48.2419 81.8918 47.4106 81.8918C46.5793 81.8918 45.9055 82.5634 45.9055 83.3918C45.9055 84.2203 46.5793 84.8918 47.4106 84.8918Z" fill="#FFE227"/>
<path d="M1.50513 84.8918C2.3364 84.8918 3.01027 84.2203 3.01027 83.3918C3.01027 82.5634 2.3364 81.8918 1.50513 81.8918C0.673871 81.8918 0 82.5634 0 83.3918C0 84.2203 0.673871 84.8918 1.50513 84.8918Z" fill="#FFE227"/>
<path d="M139.254 125.822C140.085 125.822 140.759 125.15 140.759 124.322C140.759 123.493 140.085 122.822 139.254 122.822C138.423 122.822 137.749 123.493 137.749 124.322C137.749 125.15 138.423 125.822 139.254 125.822Z" fill="#FFE227"/>
<path d="M93.3483 125.822C94.1796 125.822 94.8534 125.15 94.8534 124.322C94.8534 123.493 94.1796 122.822 93.3483 122.822C92.517 122.822 91.8432 123.493 91.8432 124.322C91.8432 125.15 92.517 125.822 93.3483 125.822Z" fill="#FFE227"/>
<path d="M47.4106 125.822C48.2419 125.822 48.9157 125.15 48.9157 124.322C48.9157 123.493 48.2419 122.822 47.4106 122.822C46.5793 122.822 45.9055 123.493 45.9055 124.322C45.9055 125.15 46.5793 125.822 47.4106 125.822Z" fill="#FFE227"/>
<path d="M1.50513 125.822C2.3364 125.822 3.01027 125.15 3.01027 124.322C3.01027 123.493 2.3364 122.822 1.50513 122.822C0.673871 122.822 0 123.493 0 124.322C0 125.15 0.673871 125.822 1.50513 125.822Z" fill="#FFE227"/>
<path d="M139.254 166.751C140.085 166.751 140.759 166.08 140.759 165.251C140.759 164.423 140.085 163.751 139.254 163.751C138.423 163.751 137.749 164.423 137.749 165.251C137.749 166.08 138.423 166.751 139.254 166.751Z" fill="#FFE227"/>
<path d="M93.3483 166.751C94.1796 166.751 94.8534 166.08 94.8534 165.251C94.8534 164.423 94.1796 163.751 93.3483 163.751C92.517 163.751 91.8432 164.423 91.8432 165.251C91.8432 166.08 92.517 166.751 93.3483 166.751Z" fill="#FFE227"/>
<path d="M47.4106 166.751C48.2419 166.751 48.9157 166.08 48.9157 165.251C48.9157 164.423 48.2419 163.751 47.4106 163.751C46.5793 163.751 45.9055 164.423 45.9055 165.251C45.9055 166.08 46.5793 166.751 47.4106 166.751Z" fill="#FFE227"/>
<path d="M1.50513 166.751C2.3364 166.751 3.01027 166.08 3.01027 165.251C3.01027 164.423 2.3364 163.751 1.50513 163.751C0.673871 163.751 0 164.423 0 165.251C0 166.08 0.673871 166.751 1.50513 166.751Z" fill="#FFE227"/>
</svg>
