<svg width="115" height="26" viewBox="0 0 115 26" fill="none" xmlns="http://www.w3.org/2000/svg">
<g clip-path="url(#clip0_19_2)">
<path d="M0 8.46855V7.45819H2.264V5.17279C2.264 3.50601 2.67922 2.27634 3.50966 1.48379C4.3401 0.691232 5.4236 0.294452 6.76018 0.293444C7.26425 0.290964 7.76763 0.330936 8.26497 0.412933V1.40967C7.79397 1.3275 7.31709 1.2835 6.83898 1.27809C5.67617 1.27809 4.79926 1.59672 4.20826 2.23399C3.61725 2.87126 3.32225 3.89523 3.32327 5.30589V7.45819H7.27845V8.46855H3.32327V19.8759H2.26249V8.46855H0Z" fill="white"/>
<path d="M9.25604 13.6942C9.25604 11.7088 9.76421 10.1201 10.7805 8.92828C11.7969 7.73643 13.1491 7.1405 14.8372 7.1405C16.5325 7.1405 17.8797 7.73391 18.8788 8.92072C19.878 10.1075 20.3775 11.6987 20.3775 13.6942C20.3775 15.6352 19.8668 17.2057 18.8455 18.4057C17.8241 19.6056 16.488 20.206 14.8372 20.2071C13.14 20.2071 11.7857 19.6157 10.7745 18.4329C9.7632 17.2501 9.25705 15.6705 9.25604 13.6942ZM19.2577 13.6942C19.2577 11.98 18.8581 10.6218 18.059 9.6195C17.2599 8.61721 16.1854 8.11304 14.8357 8.10699C13.4668 8.10699 12.3813 8.60763 11.5791 9.60891C10.777 10.6102 10.3729 11.9714 10.3668 13.6927C10.3668 15.3948 10.7644 16.7414 11.5594 17.7326C12.3545 18.7238 13.4446 19.2204 14.8297 19.2224C16.1966 19.2224 17.275 18.7283 18.065 17.7402C18.8551 16.752 19.2531 15.4033 19.2592 13.6942H19.2577Z" fill="white"/>
<path d="M25.0525 7.45813L25.2389 9.66487H25.2662C25.7996 8.899 26.5157 8.27781 27.3499 7.85743C28.2018 7.392 29.1564 7.14562 30.1276 7.1405H30.4731V8.19018H30.1276C29.1333 8.19468 28.1592 8.47031 27.3105 8.98727C26.4477 9.47956 25.7397 10.2024 25.2662 11.0745V19.8758H24.2054V7.45813H25.0525Z" fill="white"/>
<path d="M42.2068 7.45821L35.5209 13.0681L42.1811 19.8744H40.7687L34.2161 13.121H34.1889V19.8744H33.1281V0.626221H34.1889V12.8775H34.2161L40.7414 7.45368L42.2068 7.45821Z" fill="white"/>
<path d="M43.6252 15.1114L46.8167 14.2992C47.0531 16.3159 48.135 17.3242 50.0626 17.3242C50.9355 17.3242 51.6311 17.1831 52.1493 16.9007C52.6676 16.6184 52.9267 16.2236 52.9267 15.7164C52.9356 15.5182 52.8819 15.3222 52.7731 15.1561C52.6643 14.99 52.506 14.8622 52.3206 14.7908C51.8478 14.5377 51.0113 14.2473 49.8111 13.9196C49.7202 13.9024 49.4565 13.8298 49.02 13.7018C47.3107 13.2117 46.0741 12.6445 45.3104 12.0002C44.5466 11.3559 44.1647 10.5074 44.1647 9.45466C44.1647 8.25676 44.6466 7.2222 45.6104 6.351C46.5924 5.47979 47.929 5.04419 49.6201 5.04419C52.853 5.04419 54.8806 6.4599 55.7029 9.29131L52.757 10.1897C52.4842 9.4476 52.1069 8.88949 51.625 8.5154C51.1431 8.14483 50.4839 7.95728 49.6474 7.95728C48.9746 7.95728 48.4351 8.08584 48.0108 8.33843C47.5865 8.59102 47.3834 8.91016 47.3834 9.29131C47.3834 9.67246 47.6198 9.9916 48.0926 10.2442C48.5978 10.462 49.807 10.8431 51.7205 11.3876C53.4298 11.8606 54.5755 12.4414 55.1574 13.1301C55.7757 13.8026 56.0848 14.6925 56.0848 15.7996C56.0848 16.9612 55.5756 18.0044 54.5573 18.929C53.539 19.8365 52.0842 20.2903 50.193 20.2903C48.1724 20.2903 46.6267 19.7911 45.5558 18.7929C44.5089 17.8226 43.8273 16.5231 43.6252 15.1114Z" fill="#FFE227"/>
<path d="M59.5551 14.7288V8.4398H57.3183V5.44503H59.6369V1.90576H62.992V5.44503H66.6471V8.4398H63.0465V14.4021C63.0465 15.1841 63.1784 15.7225 63.4421 16.022C63.7057 16.3215 64.2195 16.4757 64.9832 16.4757H66.1637V19.8789H64.6635C62.7359 19.8789 61.3993 19.47 60.6537 18.6523C59.9213 17.8536 59.5551 16.5458 59.5551 14.7288Z" fill="#FFE227"/>
<path d="M69.2384 14.753V5.44507H72.7845V14.3689C72.7845 15.2764 72.9572 15.9207 73.3027 16.3034C73.6483 16.686 74.2029 16.8736 74.9697 16.8736C75.8587 16.8736 76.5588 16.6467 77.07 16.1929C77.5812 15.7392 77.8338 15.0404 77.8277 14.0966V5.44507H81.3737V19.8759H77.9944V18.4859H77.9399C77.0306 19.6858 75.7759 20.2848 74.1756 20.2828C72.539 20.2828 71.307 19.7972 70.4796 18.8262C69.6522 17.8552 69.2384 16.4975 69.2384 14.753Z" fill="#FFE227"/>
<path d="M97.7143 19.8759H94.3804V18.4859H94.3259C94.1995 18.6573 94.0628 18.8209 93.9167 18.9759C93.753 19.1776 93.3348 19.4498 92.6619 19.7927C91.9922 20.1228 91.254 20.2907 90.5071 20.2827C88.5977 20.2827 87.0701 19.593 85.9245 18.2136C84.8011 16.814 84.2394 14.9627 84.2394 12.6597C84.2394 10.3405 84.8577 8.4892 86.0942 7.10576C87.3126 5.72736 88.7674 5.03766 90.4586 5.03665C91.145 5.03254 91.8242 5.17649 92.4498 5.45864C93.0681 5.74148 93.5106 6.04398 93.7591 6.36614L94.1137 6.82897H94.1682V0H97.7143V19.8759ZM94.1682 13.9665V11.3257C94.1806 10.9185 94.1123 10.5128 93.9672 10.132C93.8221 9.75126 93.6031 9.40285 93.3226 9.10681C92.7589 8.51794 92.0043 8.223 91.0587 8.22199C90.0039 8.22199 89.1957 8.59861 88.634 9.35184C88.0723 10.1051 87.7904 11.2077 87.7884 12.6597C87.7884 14.1127 88.0703 15.2158 88.634 15.9691C89.1977 16.7223 90.006 17.0984 91.0587 17.0974C92.0043 17.0974 92.7589 16.7979 93.3226 16.199C93.8889 15.5955 94.1929 14.7929 94.1682 13.9665Z" fill="#FFE227"/>
<path d="M106.17 26.0016H102.651L105.543 19.1665L99.7601 5.44507H103.361L107.098 15.2189H107.152L110.889 5.44507H114.49L106.17 26.0016Z" fill="#FFE227"/>
</g>
<defs>
<clipPath id="clip0_19_2">
<rect width="114.491" height="26" fill="white"/>
</clipPath>
</defs>
</svg>
